<svg xmlns="http://www.w3.org/2000/svg" width="13.558" height="21.396" viewBox="0 0 13.558 21.396">
  <g id="tab_saved" transform="translate(0.15 0.15)">
    <g id="Group_2" data-name="Group 2" transform="translate(0)">
      <path id="Path_5" data-name="Path 5" d="M93.025,0H80.9a.594.594,0,0,0-.566.618V20.467a.621.621,0,0,0,.349.571.524.524,0,0,0,.216.047.543.543,0,0,0,.4-.181l5.663-6.18,5.663,6.18a.532.532,0,0,0,.617.134.621.621,0,0,0,.349-.571V.618A.594.594,0,0,0,93.025,0ZM86.962,13.233a.543.543,0,0,0-.4.181l-5.1,5.562V1.235H92.459v17.74l-5.1-5.562A.543.543,0,0,0,86.962,13.233Z" transform="translate(-80.333)" stroke="#000" stroke-width="0.3"/>
    </g>
  </g>
</svg>
