<svg xmlns="http://www.w3.org/2000/svg" width="21.284" height="19.965" viewBox="0 0 21.284 19.965">
  <g id="tab_home" transform="translate(0.1 0.1)">
    <path id="Path_1" data-name="Path 1" d="M55.9,204.483h-14A1.9,1.9,0,0,1,40,202.588v-9.966a.659.659,0,1,1,1.318,0v9.966a.577.577,0,0,0,.577.577h14a.577.577,0,0,0,.577-.577v-9.966a.659.659,0,1,1,1.318,0v9.966A1.9,1.9,0,0,1,55.9,204.483Z" transform="translate(-38.353 -184.717)" stroke="#000" stroke-width="0.2"/>
    <path id="Path_2" data-name="Path 2" d="M20.426,26.227a.657.657,0,0,1-.466-.193L11.765,17.84a1.731,1.731,0,0,0-2.446,0L1.125,26.034A.659.659,0,0,1,.193,25.1l8.194-8.194a3.051,3.051,0,0,1,4.31,0L20.892,25.1a.659.659,0,0,1-.466,1.125Z" transform="translate(0 -16.017)" stroke="#000" stroke-width="0.2"/>
    <path id="Path_3" data-name="Path 3" d="M181.93,296.549h-5.271a.659.659,0,0,1-.659-.659v-5.848a2.061,2.061,0,0,1,2.059-2.059h2.471a2.061,2.061,0,0,1,2.059,2.059v5.848A.659.659,0,0,1,181.93,296.549Zm-4.612-1.318h3.953v-5.189a.742.742,0,0,0-.741-.741h-2.471a.742.742,0,0,0-.741.741Z" transform="translate(-168.752 -276.783)" stroke="#000" stroke-width="0.2"/>
  </g>
</svg>
