<svg xmlns="http://www.w3.org/2000/svg" width="21.843" height="21.784" viewBox="0 0 21.843 21.784">
  <g id="tab_search" transform="translate(0.35 0.35)">
    <g id="Group_1" data-name="Group 1" transform="translate(0 0)">
      <path id="Path_4" data-name="Path 4" d="M2.652,2.651a9.052,9.052,0,0,1,15.454,6.4A8.985,8.985,0,0,1,15.877,15L20.9,20.029a.618.618,0,1,1-.874.874L15,15.876A9.052,9.052,0,0,1,0,9.052,8.993,8.993,0,0,1,2.652,2.651Zm.875,11.928a7.812,7.812,0,1,0,0-11.053A7.825,7.825,0,0,0,3.527,14.579Z" transform="translate(-0.001 0)" stroke="#000" stroke-width="0.7"/>
    </g>
  </g>
</svg>
